<?xml version="1.0" standalone="no"?>
<!DOCTYPE svg PUBLIC "-//W3C//DTD SVG 20010904//EN"
 "http://www.w3.org/TR/2001/REC-SVG-20010904/DTD/svg10.dtd">
<svg version="1.0" xmlns="http://www.w3.org/2000/svg"
 width="512.000000pt" height="512.000000pt" viewBox="0 0 512.000000 512.000000"
 preserveAspectRatio="xMidYMid meet">
<metadata>
Created by potrace 1.16, written by Peter Selinger 2001-2019
</metadata>
<g transform="translate(0.000000,512.000000) scale(0.100000,-0.100000)"
fill="#000000" stroke="none">
<path d="M1940 5081 c-47 -15 -95 -44 -126 -77 -18 -21 -143 -267 -314 -623
l-284 -590 -471 -3 c-469 -3 -470 -3 -530 -27 -83 -33 -164 -115 -194 -196
-19 -49 -22 -75 -19 -145 4 -96 25 -150 85 -220 l36 -42 243 -1472 c264 -1599
248 -1524 328 -1592 79 -68 -41 -64 1866 -64 1907 0 1787 -4 1866 64 80 68 64
-7 328 1592 l243 1472 36 43 c61 71 81 123 85 219 3 69 0 96 -19 145 -30 81
-111 163 -194 196 -60 24 -61 24 -530 27 l-471 3 -283 589 c-174 361 -296 602
-315 623 -94 103 -258 112 -364 21 -66 -56 -86 -104 -87 -199 l0 -80 228 -471
c125 -259 227 -473 227 -477 0 -4 -337 -7 -750 -7 -412 0 -750 3 -750 6 0 4
102 219 227 478 215 445 228 475 231 537 3 52 -1 77 -18 118 -50 115 -195 187
-310 152z"/>
</g>
</svg>
