<?xml version="1.0" standalone="no"?>
<!DOCTYPE svg PUBLIC "-//W3C//DTD SVG 20010904//EN"
 "http://www.w3.org/TR/2001/REC-SVG-20010904/DTD/svg10.dtd">
<svg version="1.0" xmlns="http://www.w3.org/2000/svg"
 width="512.000000pt" height="512.000000pt" viewBox="0 0 512.000000 512.000000"
 preserveAspectRatio="xMidYMid meet">
<metadata>
Created by potrace 1.14, written by Peter Selinger 2001-2017
</metadata>
<g transform="translate(0.000000,512.000000) scale(0.100000,-0.100000)"
fill="#000000" stroke="none">
<path d="M2260 4969 c-196 -77 -347 -169 -454 -278 -186 -188 -235 -382 -163
-646 20 -75 77 -186 167 -325 121 -188 151 -291 126 -437 -9 -51 -73 -152
-115 -184 -43 -32 -39 -38 17 -27 281 57 442 180 471 359 20 118 -3 207 -105
417 -187 382 -218 607 -115 833 39 87 140 208 241 292 42 34 25 33 -70 -4z"/>
<path d="M2659 4106 c-2 -2 -21 -7 -41 -10 -97 -15 -180 -67 -209 -130 -32
-71 -22 -148 37 -269 42 -89 67 -188 68 -268 0 -101 -33 -171 -118 -251 -33
-32 -58 -58 -54 -58 18 0 171 68 214 95 191 122 230 311 107 520 -94 160 -101
252 -26 336 19 21 33 39 31 39 -3 0 -7 -2 -9 -4z"/>
<path d="M5 2666 c7 -286 12 -355 36 -541 52 -403 153 -703 318 -940 192 -277
459 -465 840 -591 l104 -34 871 0 871 0 75 24 c139 45 310 118 395 170 163
100 322 236 411 351 53 67 55 70 84 71 71 4 178 14 197 18 11 2 43 8 70 12
212 30 441 124 585 238 118 94 209 236 240 376 15 65 17 244 4 305 -26 120
-93 225 -190 299 -113 86 -253 125 -445 124 l-126 -1 0 174 0 174 -2173 1
-2174 1 7 -231z m4661 -465 c98 -43 133 -107 130 -239 -3 -154 -86 -260 -271
-350 -48 -24 -146 -58 -189 -66 -12 -3 -43 -9 -71 -15 -27 -6 -62 -13 -77 -15
l-26 -4 15 51 c8 29 21 68 28 87 32 82 57 203 89 415 l22 150 29 6 c17 4 84 6
150 5 100 -2 129 -6 171 -25z"/>
<path d="M444 397 c9 -56 49 -112 103 -144 l48 -28 374 -2 375 -1 17 -35 c10
-19 31 -43 46 -53 27 -18 61 -19 858 -19 l830 0 31 22 c17 12 37 36 44 53 8
20 20 30 34 30 11 1 181 2 376 3 l355 2 48 28 c55 33 94 86 102 142 l7 40
-1827 0 -1827 0 6 -38z"/>
</g>
</svg>
